<?xml version="1.0" encoding="UTF-8" standalone="no"?>
<!-- Created with Inkscape (http://www.inkscape.org/) -->

<svg
   xmlns:dc="http://purl.org/dc/elements/1.1/"
   xmlns:cc="http://creativecommons.org/ns#"
   xmlns:rdf="http://www.w3.org/1999/02/22-rdf-syntax-ns#"
   xmlns:svg="http://www.w3.org/2000/svg"
   xmlns="http://www.w3.org/2000/svg"
   xmlns:sodipodi="http://sodipodi.sourceforge.net/DTD/sodipodi-0.dtd"
   xmlns:inkscape="http://www.inkscape.org/namespaces/inkscape"
   width="210mm"
   height="297mm"
   id="svg2"
   version="1.1"
   inkscape:version="0.48.3.1 r9886"
   sodipodi:docname="graficos.svg">
  <defs
     id="defs4" />
  <sodipodi:namedview
     id="base"
     pagecolor="#ffffff"
     bordercolor="#666666"
     borderopacity="1.0"
     inkscape:pageopacity="0.0"
     inkscape:pageshadow="2"
     inkscape:zoom="0.99999999"
     inkscape:cx="475.69242"
     inkscape:cy="723.30697"
     inkscape:document-units="px"
     inkscape:current-layer="layer1"
     showgrid="false"
     showguides="true"
     inkscape:snap-bbox="false"
     inkscape:window-width="1280"
     inkscape:window-height="970"
     inkscape:window-x="0"
     inkscape:window-y="31"
     inkscape:window-maximized="1" />
  <metadata
     id="metadata7">
    <rdf:RDF>
      <cc:Work
         rdf:about="">
        <dc:format>image/svg+xml</dc:format>
        <dc:type
           rdf:resource="http://purl.org/dc/dcmitype/StillImage" />
        <dc:title />
      </cc:Work>
    </rdf:RDF>
  </metadata>
  <g
     inkscape:label="Capa 1"
     inkscape:groupmode="layer"
     id="layer1">
    <path
       style="fill:none;stroke:#000000;stroke-width:0.99900746;stroke-linecap:round;stroke-linejoin:round;stroke-miterlimit:4;stroke-opacity:1;stroke-dasharray:none"
       d="m 19.999504,28.361686 20.000992,0 0,16.681542 c 0,0 0,7.319451 -10.000496,7.319451 -10.000496,0 -10.000496,-7.319451 -10.000496,-7.319451 z"
       id="path2993"
       inkscape:connector-curvature="0" />
    <path
       style="fill:none;stroke:#000000;stroke-width:0.99902552;stroke-linecap:round;stroke-linejoin:round;stroke-miterlimit:4;stroke-opacity:1;stroke-dasharray:none"
       d="m 49.999773,28.361695 0,16.696331 c 0,0 0,7.304644 10.000488,7.304644 10.000488,0 10.000488,-7.304644 10.000488,-7.304644 l 0,-16.696331 c -0.263303,0.217907 -0.519336,0.399877 -0.781289,0.596299 -0.254484,0.189877 -0.494703,0.382108 -0.875043,0.626112 -1.716447,1.101173 -4.640518,2.551444 -8.21915,2.623709 -0.08156,0.0016 -0.167785,-1.85e-4 -0.250012,0 -3.578633,-0.07226 -6.502703,-1.522536 -8.21915,-2.623709 -0.295598,-0.189637 -0.467119,-0.31754 -0.687534,-0.477038 -0.0638,-0.04666 -0.123613,-0.101161 -0.18751,-0.149074 -0.452268,-0.33745 -0.781288,-0.596299 -0.781288,-0.596299 z"
       id="path2993-0"
       inkscape:connector-curvature="0" />
    <path
       id="path2993-0-9"
       style="fill:none;stroke:#000000;stroke-width:0.99873817;stroke-linecap:round;stroke-linejoin:round;stroke-miterlimit:4;stroke-opacity:1;stroke-dasharray:none"
       d="m 100.00063,28.361552 c -0.263306,0.214859 -0.519343,0.394283 -0.781299,0.587958 -0.254489,0.187223 -0.494711,0.376765 -0.875056,0.617355 -1.716474,1.085776 -4.640586,2.515765 -8.219267,2.587018 -0.08157,0.0016 -0.16779,-1.82e-4 -0.250017,0 -3.578681,-0.07125 -6.502795,-1.501242 -8.219269,-2.587018 -0.2956,-0.186984 -0.467122,-0.313097 -0.687544,-0.470366 -0.06381,-0.046 -0.123614,-0.09974 -0.18751,-0.146989 -0.452276,-0.332731 -0.781299,-0.587958 -0.781299,-0.587958 m 0,2.217397 0,14.581373 c 0,0 0,7.202492 10.00063,7.202492 10.000631,0 10.000631,-7.202492 10.000631,-7.202492 l 0,-10.10827 0,-4.473103 c -0.263306,0.214858 -0.519343,0.394284 -0.781299,0.587959 -0.254489,0.187223 -0.494711,0.376765 -0.875056,0.617356 -1.716474,1.085774 -4.640586,2.515765 -8.219267,2.587019 -0.08157,0.0016 -0.16779,-1.84e-4 -0.250017,0 -3.578681,-0.07125 -6.502795,-1.501245 -8.219269,-2.587019 -0.2956,-0.186986 -0.467122,-0.313099 -0.687544,-0.470365 -0.06381,-0.046 -0.123614,-0.09975 -0.18751,-0.146991 -0.452276,-0.332731 -0.781299,-0.587959 -0.781299,-0.587959 z"
       inkscape:connector-curvature="0"
       sodipodi:nodetypes="ccsccscccccsccccsccsccc" />
    <path
       style="fill:none;stroke:#000000;stroke-width:0.99901211;stroke-linecap:round;stroke-linejoin:round;stroke-miterlimit:4;stroke-opacity:1;stroke-dasharray:none"
       d="m 201.99218,33.361689 c 1.11398,0 2.00832,0.878649 2.00832,1.992649 0,1.114001 -0.91004,2.008339 -2.00832,2.008339 -1.09832,0 -1.99267,-0.910029 -1.99267,-2.008339 0,-1.09831 0.87866,-1.992649 1.99267,-1.992649 z"
       id="path4009"
       inkscape:connector-curvature="0" />
    <path
       id="path2993-0-9-5"
       style="fill:none;stroke:#000000;stroke-width:0.99873841;stroke-linecap:round;stroke-linejoin:round;stroke-miterlimit:4;stroke-opacity:1;stroke-dasharray:none"
       d="m 200.00063,212.36155 c -0.2633,0.21485 -0.51934,0.39428 -0.7813,0.58795 -0.25449,0.18723 -0.49471,0.37677 -0.87505,0.61735 -1.71649,1.08579 -4.64059,2.51576 -8.21928,2.58702 -0.0816,0.002 -0.16778,-1.8e-4 -0.25001,0 -3.57869,-0.0712 -6.5028,-1.50123 -8.21927,-2.58702 -0.2956,-0.18698 -0.46713,-0.3131 -0.68755,-0.47035 -0.0638,-0.0461 -0.12361,-0.0998 -0.1875,-0.147 -0.45229,-0.33274 -0.7813,-0.58795 -0.7813,-0.58795 m 0,2.21739 0,14.58138 c 0,0 0,7.20249 10.00063,7.20249 10.00063,0 10.00063,-7.20249 10.00063,-7.20249 l 0,-14.58138 c -0.2633,0.21487 -0.51934,0.39429 -0.7813,0.58796 -0.25449,0.18722 -0.49471,0.37677 -0.87505,0.61736 -1.71649,1.08578 -4.64059,2.51576 -8.21928,2.58702 -0.0816,0.002 -0.16778,-1.8e-4 -0.25001,0 -3.57869,-0.0712 -6.5028,-1.50124 -8.21927,-2.58702 -0.2956,-0.18698 -0.46713,-0.3131 -0.68755,-0.47037 -0.0638,-0.0461 -0.12361,-0.0998 -0.1875,-0.14699 -0.45229,-0.33273 -0.7813,-0.58796 -0.7813,-0.58796 z"
       inkscape:connector-curvature="0"
       sodipodi:nodetypes="ccsccscccccscccsccsccc" />
    <path
       style="fill:none;stroke:#000000;stroke-width:1;stroke-linecap:round;stroke-linejoin:round;stroke-opacity:1;stroke-miterlimit:4;stroke-dasharray:none"
       d="m 186.02591,215.34862 0,-61.77714 0,0"
       id="path4108"
       inkscape:connector-curvature="0" />
    <path
       style="fill:none;stroke:#000000;stroke-width:1;stroke-linecap:round;stroke-linejoin:round;stroke-opacity:1;stroke-miterlimit:4;stroke-dasharray:none"
       d="m 193.98787,215.34862 0,-61.77714 0,0"
       id="path4108-8"
       inkscape:connector-curvature="0" />
    <path
       id="path4009-3"
       style="fill:none;stroke:#000000;stroke-width:0.99977338;stroke-linecap:round;stroke-linejoin:round;stroke-miterlimit:4;stroke-opacity:1;stroke-dasharray:none"
       d="m 119.99218,52.359194 c 1.11383,0 2.00805,0.879092 2.00805,1.993652 0,1.114561 -0.9099,2.00935 -2.00805,2.00935 -1.09818,0 -1.9924,-0.910487 -1.9924,-2.00935 0,-1.098862 0.87853,-1.993652 1.9924,-1.993652 z m -9.99229,-23.997224 20.00022,0 0,16.688515 c 0,0 0,7.322511 -10.00009,7.322511 -10.00013,0 -10.00013,-7.322511 -10.00013,-7.322511 z"
       inkscape:connector-curvature="0" />
    <path
       id="path4009-3-1"
       style="fill:none;stroke:#000000;stroke-width:0.99977362;stroke-linecap:round;stroke-linejoin:round;stroke-miterlimit:4;stroke-opacity:1;stroke-dasharray:none"
       d="m 149.99217,52.359157 c 1.11385,0 2.00808,0.879098 2.00808,1.993668 0,1.11457 -0.90991,2.009364 -2.00808,2.009364 -1.09819,0 -1.99243,-0.910494 -1.99243,-2.009364 0,-1.098872 0.87854,-1.993668 1.99243,-1.993668 z m -9.99228,-23.997194 0,16.703158 c 0,0 0,7.307631 10.00011,7.307631 10.00011,0 10.00011,-7.307631 10.00011,-7.307631 l 0,-16.703158 c -0.26329,0.217995 -0.51932,0.40004 -0.78125,0.59654 -0.25448,0.189958 -0.4947,0.382266 -0.87502,0.62637 -1.71638,1.101624 -4.64033,2.552487 -8.21884,2.62478 -0.0815,0.0016 -0.16777,-1.85e-4 -0.25,0 -3.57851,-0.07229 -6.50246,-1.523156 -8.21884,-2.62478 -0.29559,-0.189714 -0.4671,-0.31767 -0.68751,-0.477234 -0.0639,-0.04668 -0.12361,-0.101201 -0.18751,-0.149136 -0.45224,-0.337586 -0.78125,-0.59654 -0.78125,-0.59654 z"
       inkscape:connector-curvature="0" />
    <path
       id="path4009-3-4"
       style="fill:none;stroke:#000000;stroke-width:0.99976546;stroke-linecap:round;stroke-linejoin:round;stroke-miterlimit:4;stroke-opacity:1;stroke-dasharray:none"
       d="m 179.99216,52.359737 c 1.1135,0 2.00744,0.878995 2.00744,1.993434 0,1.114438 -0.90962,2.009129 -2.00744,2.009129 -1.09782,0 -1.99178,-0.910389 -1.99178,-2.009129 0,-1.098743 0.87826,-1.993434 1.99178,-1.993434 z m 10.00796,-23.997671 c -0.26331,0.214978 -0.51932,0.394502 -0.78126,0.588284 -0.25449,0.187325 -0.4947,0.376973 -0.87501,0.617697 -1.71639,1.086376 -4.64036,2.517156 -8.21886,2.588449 -0.0816,0.0016 -0.16778,-1.81e-4 -0.25,0 -3.57851,-0.07129 -6.50247,-1.502073 -8.21885,-2.588449 -0.29559,-0.187088 -0.46709,-0.313271 -0.6875,-0.470627 -0.0638,-0.04603 -0.12361,-0.0998 -0.18751,-0.14707 -0.45225,-0.332915 -0.78125,-0.588284 -0.78125,-0.588284 m 0,2.218624 0,14.589445 c 0,0 0,7.206479 10.00011,7.206479 10.00013,0 10.00013,-7.206479 10.00013,-7.206479 l 0,-10.113865 0,-4.47558 c -0.26331,0.214978 -0.51932,0.394503 -0.78126,0.588285 -0.25449,0.187327 -0.4947,0.376974 -0.87501,0.617698 -1.71639,1.086375 -4.64036,2.517158 -8.21886,2.588451 -0.0816,0.0016 -0.16778,-1.84e-4 -0.25,0 -3.57851,-0.07129 -6.50247,-1.502076 -8.21885,-2.588451 -0.29559,-0.18709 -0.46709,-0.313272 -0.6875,-0.470626 -0.0638,-0.04603 -0.12361,-0.09981 -0.18751,-0.147072 -0.45225,-0.332915 -0.78125,-0.588285 -0.78125,-0.588285 z"
       inkscape:connector-curvature="0" />
    <path
       style="fill:none;stroke:#000000;stroke-width:0.99900728;stroke-linecap:round;stroke-linejoin:round;stroke-miterlimit:4;stroke-opacity:1;stroke-dasharray:none"
       d="m 164.0005,177.36169 0,20.00099 -16.68155,0 c 0,0 -7.31945,0 -7.31945,-10.0005 0,-10.00049 7.31945,-10.00049 7.31945,-10.00049 z"
       id="path2993-9"
       inkscape:connector-curvature="0" />
    <path
       style="fill:none;stroke:#000000;stroke-width:1px;stroke-linecap:round;stroke-linejoin:round;stroke-opacity:1"
       d="m 164.02352,183.36218 19.99786,0 c 0,0 -0.0158,-2.00452 2.00453,-2.00452 2.0203,0 2.0203,2.00452 2.0203,2.00452 l 5.91886,0"
       id="path4216"
       inkscape:connector-curvature="0"
       sodipodi:nodetypes="ccscc" />
    <path
       style="fill:none;stroke:#000000;stroke-width:1px;stroke-linecap:butt;stroke-linejoin:round;stroke-opacity:1"
       d="m 163.99554,191.36888 22.03125,0 0,0"
       id="path4218"
       inkscape:connector-curvature="0" />
    <path
       sodipodi:type="arc"
       style="stroke-width:1;stroke-linecap:round;stroke-linejoin:round;stroke-miterlimit:4;stroke-dasharray:none"
       id="path4233"
       sodipodi:cx="186.01802"
       sodipodi:cy="191.37286"
       sodipodi:rx="0.99436891"
       sodipodi:ry="0.99436891"
       d="m 187.01239,191.37286 a 0.99436891,0.99436891 0 1 1 -1.98874,0 0.99436891,0.99436891 0 1 1 1.98874,0 z"
       transform="matrix(1.5084945,0,0,1.5084945,-94.607161,-97.32273)" />
    <path
       sodipodi:type="arc"
       style="stroke-width:1;stroke-linecap:round;stroke-linejoin:round;stroke-miterlimit:4;stroke-dasharray:none"
       id="path4233-1"
       sodipodi:cx="186.01802"
       sodipodi:cy="191.37286"
       sodipodi:rx="0.99436891"
       sodipodi:ry="0.99436891"
       d="m 187.01239,191.37286 a 0.99436891,0.99436891 0 1 1 -1.98874,0 0.99436891,0.99436891 0 1 1 1.98874,0 z"
       transform="matrix(1.5084945,0,0,1.5084945,-86.607161,-105.32273)" />
    <rect
       style="stroke-width:0.2;stroke-linecap:butt;stroke-linejoin:miter;stroke-miterlimit:4;stroke-dasharray:1.6,1.6;fill:none;stroke:#000000;stroke-opacity:1;stroke-dashoffset:0.2"
       id="rect4273"
       width="94"
       height="84"
       x="126.04179"
       y="160.70053" />
    <text
       xml:space="preserve"
       x="104.46665"
       y="195.48288"
       id="text4275"><tspan
         sodipodi:role="line"
         id="tspan4277"
         x="104.46665"
         y="195.48288"
         style="font-style:italic;font-variant:normal;font-weight:normal;font-stretch:normal;font-family:Bitstream Charter;-inkscape-font-specification:Bitstream Charter">c<tspan
   style="font-size:65.00091553000000033%;font-style:italic;font-variant:normal;font-weight:normal;font-stretch:normal;baseline-shift:sub;font-family:Bitstream Charter;-inkscape-font-specification:Bitstream Charter"
   id="tspan4279">out</tspan></tspan></text>
    <text
       xml:space="preserve"
       x="174.36499"
       y="154.15637"
       id="text4281"
       style="font-size:12px;font-style:italic;font-variant:normal;font-weight:normal;font-stretch:normal;text-align:start;line-height:125%;writing-mode:lr-tb;text-anchor:start;font-family:TG Pagella Math;-inkscape-font-specification:TG Pagella Math Italic"
       sodipodi:linespacing="125%"><tspan
         sodipodi:role="line"
         id="tspan4283"
         x="174.36499"
         y="154.15637"
         style="-inkscape-font-specification:Bitstream Charter Italic;font-family:Bitstream Charter;font-weight:normal;font-style:italic;font-stretch:normal;font-variant:normal">e<tspan
   style="font-size:65.00091553000000033%;baseline-shift:sub;-inkscape-font-specification:Bitstream Charter Italic;font-family:Bitstream Charter;font-weight:normal;font-style:italic;font-stretch:normal;font-variant:normal"
   id="tspan4285">1</tspan></tspan></text>
    <text
       xml:space="preserve"
       x="195.61743"
       y="154.06799"
       id="text4287"><tspan
         sodipodi:role="line"
         id="tspan4289"
         x="195.61743"
         y="154.06799"
         style="font-style:italic;font-variant:normal;font-weight:normal;font-stretch:normal;font-family:Bitstream Charter;-inkscape-font-specification:Bitstream Charter Italic">e<tspan
   style="font-size:65.00091553000000033%;font-style:italic;font-variant:normal;font-weight:normal;font-stretch:normal;baseline-shift:sub;font-family:Bitstream Charter;-inkscape-font-specification:Bitstream Charter Italic"
   id="tspan4291">0</tspan></tspan></text>
    <flowRoot
       xml:space="preserve"
       id="flowRoot4293"
       style="fill:black;stroke:none;stroke-opacity:1;stroke-width:1px;stroke-linejoin:miter;stroke-linecap:butt;fill-opacity:1;font-family:Sans;font-style:normal;font-weight:normal;font-size:12px;line-height:125%;letter-spacing:0px;word-spacing:0px"><flowRegion
         id="flowRegion4295"><rect
           id="rect4297"
           width="13"
           height="21.25"
           x="207.25"
           y="101.86218" /></flowRegion><flowPara
         id="flowPara4299" /></flowRoot>    <text
       xml:space="preserve"
       style="font-size:12px;font-style:italic;font-variant:normal;font-weight:normal;font-stretch:normal;line-height:125%;letter-spacing:0px;word-spacing:0px;fill:#000000;fill-opacity:1;stroke:none;font-family:TG Pagella Math;-inkscape-font-specification:Bitstream Charter Italic"
       x="192.13257"
       y="254.43665"
       id="text4301"
       sodipodi:linespacing="125%"><tspan
         sodipodi:role="line"
         id="tspan4303"
         x="192.13257"
         y="254.43665"
         style="-inkscape-font-specification:Bitstream Charter Italic;font-family:Bitstream Charter;font-weight:normal;font-style:italic;font-stretch:normal;font-variant:normal">s</tspan></text>
    <path
       style="fill:none;stroke:#000000;stroke-width:1px;stroke-linecap:round;stroke-linejoin:round;stroke-opacity:1"
       d="m 190.01563,236.37781 0,21.03125"
       id="path4305"
       inkscape:connector-curvature="0" />
    <path
       style="fill:none;stroke:#000000;stroke-width:1px;stroke-linecap:round;stroke-linejoin:round;stroke-opacity:1"
       d="m 139.99999,187.3778 -40.046865,0"
       id="path4307"
       inkscape:connector-curvature="0" />
    <path
       id="path4009-3-0"
       style="fill:none;stroke:#000000;stroke-width:0.99977338;stroke-linecap:round;stroke-linejoin:round;stroke-miterlimit:4;stroke-opacity:1;stroke-dasharray:none"
       d="m 304.99218,178.3593 c 1.11383,0 2.00805,0.87909 2.00805,1.99365 0,1.11456 -0.9099,2.00935 -2.00805,2.00935 -1.09818,0 -1.9924,-0.91049 -1.9924,-2.00935 0,-1.09886 0.87853,-1.99365 1.9924,-1.99365 z m -9.99229,-23.99722 20.00022,0 0,16.68851 c 0,0 0,7.32251 -10.00009,7.32251 -10.00013,0 -10.00013,-7.32251 -10.00013,-7.32251 z"
       inkscape:connector-curvature="0" />
    <path
       style="fill:none;stroke:#000000;stroke-width:1px;stroke-linecap:round;stroke-linejoin:round;stroke-opacity:1"
       d="m 301.01757,154.35866 0,-16.99266"
       id="path3121"
       inkscape:connector-curvature="0" />
    <path
       style="fill:none;stroke:#000000;stroke-width:1px;stroke-linecap:round;stroke-linejoin:round;stroke-opacity:1"
       d="m 309.00567,154.35866 0,-17.00371"
       id="path3891"
       inkscape:connector-curvature="0" />
    <path
       id="path4009-3-0-0"
       style="fill:none;stroke:#000000;stroke-width:0.99977338;stroke-linecap:round;stroke-linejoin:round;stroke-miterlimit:4;stroke-opacity:1;stroke-dasharray:none"
       d="m 314.99218,212.8593 c 1.11383,0 2.00805,0.87909 2.00805,1.99365 0,1.11456 -0.9099,2.00935 -2.00805,2.00935 -1.09818,0 -1.9924,-0.91049 -1.9924,-2.00935 0,-1.09886 0.87853,-1.99365 1.9924,-1.99365 z m -9.99229,-23.99722 20.00022,0 0,16.68851 c 0,0 0,7.32251 -10.00009,7.32251 -10.00013,0 -10.00013,-7.32251 -10.00013,-7.32251 z"
       inkscape:connector-curvature="0" />
    <path
       style="fill:none;stroke:#000000;stroke-width:0.99803668px;stroke-linecap:round;stroke-linejoin:round;stroke-opacity:1"
       d="m 304.99407,182.36228 0,2.99244 6.04551,0 0,3.50952"
       id="path3911"
       inkscape:connector-curvature="0"
       sodipodi:nodetypes="cccc" />
    <path
       style="fill:none;stroke:#000000;stroke-width:1px;stroke-linecap:round;stroke-linejoin:round;stroke-opacity:1"
       d="m 319.01563,188.86217 0,-51.49617"
       id="path3913"
       inkscape:connector-curvature="0" />
  </g>
</svg>
